<svg width="14" height="10" viewBox="0 0 14 10" fill="none" xmlns="http://www.w3.org/2000/svg">
<path d="M6.57692 6.63312L1.60393 0.347811C1.23701 -0.115937 0.642112 -0.115937 0.275191 0.347811C-0.0917303 0.811558 -0.0917303 1.56344 0.275191 2.02719L5.91255 9.15219C6.27947 9.61594 6.87437 9.61594 7.24129 9.15219L12.8787 2.02719C13.2456 1.56344 13.2456 0.811558 12.8787 0.347811C12.5117 -0.115937 11.9168 -0.115937 11.5499 0.347811L6.57692 6.63312Z" fill="#7C7C7C"/>
<mask id="mask0_5479_343" style="mask-type:luminance" maskUnits="userSpaceOnUse" x="0" y="0" width="14" height="10">
<path d="M6.57692 6.63312L1.60393 0.347811C1.23701 -0.115937 0.642112 -0.115937 0.275191 0.347811C-0.0917303 0.811558 -0.0917303 1.56344 0.275191 2.02719L5.91255 9.15219C6.27947 9.61594 6.87437 9.61594 7.24129 9.15219L12.8787 2.02719C13.2456 1.56344 13.2456 0.811558 12.8787 0.347811C12.5117 -0.115937 11.9168 -0.115937 11.5499 0.347811L6.57692 6.63312Z" fill="white"/>
</mask>
<g mask="url(#mask0_5479_343)">
</g>
</svg>
