<svg width="217" height="46" viewBox="0 0 217 46" fill="none" xmlns="http://www.w3.org/2000/svg">
<path d="M22.9997 0C35.7026 0 45.9997 10.2971 45.9997 23V39.1C45.9997 40.93 45.2728 42.685 43.9788 43.979C42.6848 45.273 40.9297 46 39.0997 46H24.1497V35.9099C24.1497 33.6076 24.29 31.2225 25.4975 29.2629C26.362 27.8586 27.5185 26.6566 28.8884 25.7385C30.2583 24.8204 31.8096 24.2077 33.4371 23.9419L33.8776 23.8706C34.0592 23.8085 34.2168 23.6912 34.3284 23.5351C34.44 23.379 34.5 23.1919 34.5 23C34.5 22.8081 34.44 22.621 34.3284 22.4649C34.2168 22.3088 34.0592 22.1915 33.8776 22.1294L33.4371 22.0581C31.0591 21.6697 28.8632 20.5441 27.1594 18.8403C25.4556 17.1365 24.3301 14.9406 23.9416 12.5626L23.8703 12.1222C23.8082 11.9406 23.6909 11.7829 23.5348 11.6713C23.3787 11.5597 23.1916 11.4997 22.9997 11.4997C22.8078 11.4997 22.6208 11.5597 22.4647 11.6713C22.3086 11.7829 22.1913 11.9406 22.1292 12.1222L22.0579 12.5626C21.7922 14.1902 21.1795 15.7415 20.2614 17.1114C19.3433 18.4814 18.1412 19.6378 16.7368 20.5022C14.7772 21.7097 12.3921 21.85 10.0898 21.85H0.0273438C0.628794 9.68185 10.6832 0 22.9997 0Z" fill="#5F6FFF"/>
<path d="M0 24.15H10.0901C12.3924 24.15 14.7775 24.2903 16.7371 25.4978C18.2689 26.4417 19.5583 27.7311 20.5022 29.2629C21.7097 31.2225 21.85 33.6076 21.85 35.9099V46H6.9C5.07001 46 3.31496 45.273 2.02096 43.979C0.726962 42.685 0 40.93 0 39.1L0 24.15ZM46 2.3C46 2.91 45.7577 3.49501 45.3263 3.92635C44.895 4.35768 44.31 4.6 43.7 4.6C43.09 4.6 42.505 4.35768 42.0737 3.92635C41.6423 3.49501 41.4 2.91 41.4 2.3C41.4 1.69 41.6423 1.10499 42.0737 0.673654C42.505 0.242321 43.09 0 43.7 0C44.31 0 44.895 0.242321 45.3263 0.673654C45.7577 1.10499 46 1.69 46 2.3Z" fill="#5F6FFF"/>
<path d="M62.848 28.126V24.352H68.39C69.1153 24.352 69.7727 24.2047 70.362 23.91C70.9513 23.6153 71.416 23.196 71.756 22.652C72.096 22.0853 72.266 21.4053 72.266 20.612C72.266 19.8413 72.096 19.1727 71.756 18.606C71.416 18.0393 70.9513 17.6087 70.362 17.314C69.7727 17.0193 69.1153 16.872 68.39 16.872H62.848V13.098H68.866C70.3847 13.098 71.7447 13.404 72.946 14.016C74.17 14.628 75.1333 15.5007 75.836 16.634C76.5387 17.7447 76.89 19.0707 76.89 20.612C76.89 22.1533 76.5387 23.4907 75.836 24.624C75.1333 25.7347 74.17 26.596 72.946 27.208C71.7447 27.82 70.3847 28.126 68.866 28.126H62.848ZM59.448 37V13.098H64.072V37H59.448ZM79.9232 37V20.578H84.3772V37H79.9232ZM84.3772 27.922L82.6432 26.766C82.8472 24.7487 83.4365 23.162 84.4112 22.006C85.3858 20.8273 86.7912 20.238 88.6272 20.238C89.4205 20.238 90.1345 20.374 90.7692 20.646C91.4038 20.8953 91.9818 21.3147 92.5032 21.904L89.7152 25.1C89.4658 24.828 89.1598 24.624 88.7972 24.488C88.4572 24.352 88.0605 24.284 87.6072 24.284C86.6552 24.284 85.8732 24.59 85.2612 25.202C84.6718 25.7913 84.3772 26.698 84.3772 27.922ZM101.457 37.34C99.7342 37.34 98.2042 36.9773 96.8669 36.252C95.5295 35.504 94.4642 34.484 93.6709 33.192C92.9002 31.9 92.5149 30.4267 92.5149 28.772C92.5149 27.14 92.8889 25.6893 93.6369 24.42C94.4075 23.128 95.4502 22.108 96.7649 21.36C98.0795 20.5893 99.5415 20.204 101.151 20.204C102.738 20.204 104.132 20.5667 105.333 21.292C106.557 21.9947 107.509 22.9693 108.189 24.216C108.892 25.44 109.243 26.834 109.243 28.398C109.243 28.6927 109.22 28.9987 109.175 29.316C109.152 29.6107 109.096 29.9507 109.005 30.336L95.2009 30.37V27.038L106.931 27.004L105.129 28.398C105.084 27.4233 104.902 26.6073 104.585 25.95C104.29 25.2927 103.848 24.794 103.259 24.454C102.692 24.0913 101.99 23.91 101.151 23.91C100.267 23.91 99.4962 24.114 98.8389 24.522C98.1815 24.9073 97.6715 25.4627 97.3089 26.188C96.9689 26.8907 96.7989 27.7293 96.7989 28.704C96.7989 29.7013 96.9802 30.574 97.3429 31.322C97.7282 32.0473 98.2722 32.614 98.9749 33.022C99.6775 33.4073 100.494 33.6 101.423 33.6C102.262 33.6 103.021 33.464 103.701 33.192C104.381 32.8973 104.97 32.4667 105.469 31.9L108.087 34.518C107.294 35.4473 106.319 36.15 105.163 36.626C104.03 37.102 102.794 37.34 101.457 37.34ZM117.641 37.374C116.712 37.374 115.794 37.2493 114.887 37C114.003 36.7507 113.187 36.4107 112.439 35.98C111.691 35.5267 111.045 34.9827 110.501 34.348L113.153 31.662C113.72 32.2967 114.377 32.7727 115.125 33.09C115.873 33.4073 116.701 33.566 117.607 33.566C118.333 33.566 118.877 33.464 119.239 33.26C119.625 33.056 119.817 32.75 119.817 32.342C119.817 31.8887 119.613 31.5373 119.205 31.288C118.82 31.0387 118.31 30.8347 117.675 30.676C117.041 30.4947 116.372 30.302 115.669 30.098C114.989 29.8713 114.332 29.588 113.697 29.248C113.063 28.8853 112.541 28.398 112.133 27.786C111.748 27.1513 111.555 26.3353 111.555 25.338C111.555 24.2953 111.805 23.3887 112.303 22.618C112.825 21.8473 113.561 21.2467 114.513 20.816C115.465 20.3853 116.587 20.17 117.879 20.17C119.239 20.17 120.463 20.408 121.551 20.884C122.662 21.36 123.58 22.074 124.305 23.026L121.619 25.712C121.121 25.1 120.554 24.658 119.919 24.386C119.307 24.114 118.639 23.978 117.913 23.978C117.256 23.978 116.746 24.08 116.383 24.284C116.043 24.488 115.873 24.7713 115.873 25.134C115.873 25.542 116.066 25.8593 116.451 26.086C116.859 26.3127 117.381 26.5167 118.015 26.698C118.65 26.8567 119.307 27.0493 119.987 27.276C120.69 27.48 121.347 27.7747 121.959 28.16C122.594 28.5453 123.104 29.0553 123.489 29.69C123.897 30.3247 124.101 31.1407 124.101 32.138C124.101 33.7473 123.523 35.028 122.367 35.98C121.211 36.9093 119.636 37.374 117.641 37.374ZM134.857 37.34C133.179 37.34 131.672 36.966 130.335 36.218C128.997 35.47 127.943 34.45 127.173 33.158C126.402 31.866 126.017 30.4153 126.017 28.806C126.017 27.174 126.402 25.712 127.173 24.42C127.943 23.128 128.997 22.108 130.335 21.36C131.695 20.5893 133.202 20.204 134.857 20.204C136.149 20.204 137.339 20.442 138.427 20.918C139.515 21.394 140.455 22.074 141.249 22.958L138.393 25.848C137.962 25.372 137.441 25.0093 136.829 24.76C136.239 24.5107 135.582 24.386 134.857 24.386C134.041 24.386 133.304 24.5787 132.647 24.964C132.012 25.3267 131.502 25.8367 131.117 26.494C130.754 27.1287 130.573 27.888 130.573 28.772C130.573 29.6333 130.754 30.404 131.117 31.084C131.502 31.7413 132.012 32.2627 132.647 32.648C133.304 33.0107 134.041 33.192 134.857 33.192C135.605 33.192 136.273 33.0673 136.863 32.818C137.475 32.546 137.996 32.1607 138.427 31.662L141.317 34.552C140.478 35.4587 139.515 36.15 138.427 36.626C137.339 37.102 136.149 37.34 134.857 37.34ZM143.839 37V20.578H148.293V37H143.839ZM148.293 27.922L146.559 26.766C146.763 24.7487 147.353 23.162 148.327 22.006C149.302 20.8273 150.707 20.238 152.543 20.238C153.337 20.238 154.051 20.374 154.685 20.646C155.32 20.8953 155.898 21.3147 156.419 21.904L153.631 25.1C153.382 24.828 153.076 24.624 152.713 24.488C152.373 24.352 151.977 24.284 151.523 24.284C150.571 24.284 149.789 24.59 149.177 25.202C148.588 25.7913 148.293 26.698 148.293 27.922ZM157.984 37V20.578H162.472V37H157.984ZM160.228 17.926C159.502 17.926 158.902 17.688 158.426 17.212C157.95 16.7133 157.712 16.1013 157.712 15.376C157.712 14.6733 157.95 14.0727 158.426 13.574C158.902 13.0753 159.502 12.826 160.228 12.826C160.976 12.826 161.576 13.0753 162.03 13.574C162.506 14.0727 162.744 14.6733 162.744 15.376C162.744 16.1013 162.506 16.7133 162.03 17.212C161.576 17.688 160.976 17.926 160.228 17.926ZM175.529 37.34C174.351 37.34 173.285 37.102 172.333 36.626C171.381 36.1273 170.622 35.4587 170.055 34.62C169.489 33.7813 169.183 32.818 169.137 31.73V25.916C169.183 24.828 169.489 23.8647 170.055 23.026C170.645 22.1647 171.404 21.4847 172.333 20.986C173.285 20.4873 174.351 20.238 175.529 20.238C177.048 20.238 178.408 20.612 179.609 21.36C180.811 22.108 181.751 23.128 182.431 24.42C183.134 25.712 183.485 27.174 183.485 28.806C183.485 30.4153 183.134 31.866 182.431 33.158C181.751 34.45 180.811 35.47 179.609 36.218C178.408 36.966 177.048 37.34 175.529 37.34ZM174.747 33.226C175.563 33.226 176.289 33.0447 176.923 32.682C177.558 32.2967 178.045 31.7753 178.385 31.118C178.748 30.438 178.929 29.656 178.929 28.772C178.929 27.9107 178.748 27.1513 178.385 26.494C178.045 25.814 177.558 25.2927 176.923 24.93C176.289 24.5447 175.563 24.352 174.747 24.352C173.954 24.352 173.24 24.5447 172.605 24.93C171.971 25.2927 171.472 25.814 171.109 26.494C170.769 27.1513 170.599 27.9107 170.599 28.772C170.599 29.656 170.769 30.438 171.109 31.118C171.472 31.7753 171.959 32.2967 172.571 32.682C173.206 33.0447 173.931 33.226 174.747 33.226ZM166.417 43.868V20.578H170.871V24.896L170.123 28.874L170.837 32.852V43.868H166.417ZM188.421 37V13.744H192.875V37H188.421ZM184.579 24.488V20.578H196.717V24.488H184.579ZM206.542 37.34C204.887 37.34 203.391 36.966 202.054 36.218C200.739 35.4473 199.685 34.416 198.892 33.124C198.121 31.8093 197.736 30.3473 197.736 28.738C197.736 27.1287 198.121 25.6893 198.892 24.42C199.662 23.128 200.716 22.108 202.054 21.36C203.391 20.5893 204.876 20.204 206.508 20.204C208.185 20.204 209.681 20.5893 210.996 21.36C212.333 22.108 213.387 23.128 214.158 24.42C214.928 25.6893 215.314 27.1287 215.314 28.738C215.314 30.3473 214.928 31.8093 214.158 33.124C213.387 34.416 212.333 35.4473 210.996 36.218C209.681 36.966 208.196 37.34 206.542 37.34ZM206.508 33.192C207.346 33.192 208.083 33.0107 208.718 32.648C209.375 32.2627 209.874 31.7413 210.214 31.084C210.576 30.404 210.758 29.6333 210.758 28.772C210.758 27.9107 210.576 27.1513 210.214 26.494C209.851 25.8367 209.352 25.3267 208.718 24.964C208.083 24.5787 207.346 24.386 206.508 24.386C205.692 24.386 204.966 24.5787 204.332 24.964C203.697 25.3267 203.198 25.8367 202.836 26.494C202.473 27.1513 202.292 27.9107 202.292 28.772C202.292 29.6333 202.473 30.404 202.836 31.084C203.198 31.7413 203.697 32.2627 204.332 32.648C204.966 33.0107 205.692 33.192 206.508 33.192Z" fill="#000B6D"/>
</svg>
